<?xml version="1.0" encoding="utf-8"?>
<!-- Generator: Adobe Illustrator 22.0.1, SVG Export Plug-In . SVG Version: 6.00 Build 0)  -->
<svg version="1.1" id="Layer_1" xmlns="http://www.w3.org/2000/svg" xmlns:xlink="http://www.w3.org/1999/xlink" x="0px" y="0px"
	 viewBox="0 0 950 950" style="enable-background:new 0 0 950 950;" xml:space="preserve">
<style type="text/css">
	.st0{fill:#3174BA;stroke:#3174BA;stroke-miterlimit:10;}
	.st1{fill:none;stroke:#036B9A;stroke-width:30;stroke-miterlimit:10;}
	.st2{fill:#FFFFFF;}
	.st3{fill:none;stroke:#FFFFFF;stroke-width:30;stroke-miterlimit:10;}
</style>
<circle class="st0" cx="474" cy="478" r="457"/>
<path class="st2" d="M652.7,672.9c-34.5,0-69,0-103.5,0c-7.7,0-15.3-1.2-21.9-5.6c-9.7-6.4-12.9-16.1-13.3-27.1
	c-0.3-9-0.1-18-0.1-27c0-39.8-0.2-79.7,0.2-119.5c0.1-6.5,1-13.4,3.5-19.4c5.2-12.7,16.3-16.7,29.1-16.9c7.8-0.1,15.6-0.2,23.4,0.1
	c5.4,0.2,6.3-2.4,6.2-7c-0.2-13.2,0-26.3,0-39.5c0-34.5,16.9-58.8,47.5-72.1c35.2-15.2,84.4,0.2,100,43.8c4.4,12.2,4.7,24.8,5,37.4
	c0.3,10.5,0.2,21,0,31.5c-0.1,4.3,1.4,5.9,5.8,5.9c10.3,0,20.6,0,30.9,0.8c12.2,1,22.2,10.5,24.2,22.4c1,6.2,1.8,12.5,1.8,18.8
	c0.1,46.2,0.1,92.3,0.1,138.5c0,21.5-13.3,34.9-34.9,34.9C722,673,687.3,672.9,652.7,672.9z M653,501.9c-29,0-58,0-87,0
	c-6.6,0-7.1,0.5-7.1,7.2c0,37.3,0,74.6,0,112c0,6.6,0.5,7.1,7.2,7.1c57.7,0,115.3,0,173,0c6.6,0,7.1-0.5,7.1-7.2
	c0-37.3,0-74.6,0-112c0-6.6-0.5-7-7.2-7.1C710.3,501.9,681.7,501.9,653,501.9z M652.6,457.3c8.7,0,17.3-0.1,26,0.1
	c4.1,0.1,5.6-1.6,5.6-5.6c-0.1-13.1,0.1-26.3-0.2-39.4c-0.1-4.6-0.4-9.5-1.9-13.7c-4.5-12.8-14.5-19-27.5-20.6
	c-14.9-1.8-33.6,11.6-33.1,28.6c0.4,15,0.2,29.9,0,44.9c-0.1,4.8,1.7,6.1,6.1,5.9C636,457.1,644.3,457.3,652.6,457.3z"/>
<path class="st2" d="M527.1,317c2,74.6-61.4,138.2-135.7,138.6c-78.8,0.5-140.1-62.4-140.3-136.9c-0.2-78.4,59.4-140.3,137.1-140.8
	C467.5,177.5,528.4,241.2,527.1,317z M388.7,410.4c50.3,1.3,94.6-40.9,94.4-92.2c-0.2-54.8-40.8-95-94.7-95.2
	c-52.2-0.2-92.7,44.7-92.9,93.8C295.3,367.1,339.4,412.2,388.7,410.4z"/>
<path class="st2" d="M465.6,474.6c0,10.8,0.2,20.9,0,31c-0.3,13.2,3.2,13.4-12.6,17.7c-15.4,4.1-30.9,7.4-46.8,8.8
	c-16.6,1.5-33,0.9-49.3-1.7c-12.1-1.9-24.1-5-35.7-8.8c-17.9-5.9-35-4.6-51.8,3.2c-23.8,11-40.7,28.1-47.7,53.8
	c-4,14.6-4.1,29.6-3.6,44.6c0.1,3.4,1.9,5.2,5.4,5.1c1.7-0.1,3.3,0,5,0c76.1,0,152.3,0,228.4,0c7.2,0,8,1,8.8,8.2
	c1,9.7,2.3,19.4,3.7,29.1c1,6.6,0.6,7.3-6,7.3c-64,0-128,0-191.9,0c-16,0-32,0.7-48,0.5c-12.2-0.2-23.7-3.5-33.4-11.3
	c-9.7-7.8-14.4-17.9-16.1-30.3c-2-14.9-1.3-29.6,0.6-44.3c3.9-30.9,16.2-57.7,39.4-79.1c16.4-15.1,35.1-26.5,56.9-31.6
	c22.4-5.3,44.6-4.6,66.7,3.3c21.5,7.7,44,9.6,66.9,7.7c18.3-1.5,35.3-7.6,52.9-11.8C459.8,475.3,462.4,475.1,465.6,474.6z"/>
<path class="st2" d="M652.8,535.2c16.7,0,29.7,13,29.7,29.8c0,17.2-12.7,29.6-30,29.9c-14,0.3-29.7-11.9-29.7-29.8
	C622.7,547.2,638.9,534,652.8,535.2z"/>
</svg>
