<svg id="Layer_1" data-name="Layer 1" xmlns="http://www.w3.org/2000/svg" viewBox="0 0 950 950"><defs><style>.cls-1{fill:#3174ba;stroke:#3174ba;stroke-miterlimit:10;}.cls-2{fill:#fff;}</style></defs><circle class="cls-1" cx="474" cy="478" r="457"/><path class="cls-2" d="M378.7,535.53c.19,4.16.31,7.88.54,11.59,1.67,26.56,23.27,48.89,49.78,51.17,7.28.63,14.63.76,22,.79,20.35.07,40.7,0,61-.07a67.71,67.71,0,0,0,19.89-2.89c22.3-6.89,38.68-28.94,38.88-52.32,0-2.54,0-5.07,0-8.11,1.81-.15,3.39-.39,5-.39q64.41,0,128.83.05a35.27,35.27,0,0,1,9.72,1.24,21.52,21.52,0,0,1,15.36,20.46q.12,57.45,0,114.92c0,11.73-9,20.83-21.25,22-2.52.25-5.08.22-7.62.22H247.88c-1.2,0-2.4-.08-3.59,0-13,.78-24.82-10.77-24.6-25.12.49-31.27.19-62.55.22-93.82,0-5.54,0-11.08,0-16.61a23,23,0,0,1,23.2-23.36c43.69.15,87.38,0,131.07,0C375.49,535.29,376.81,535.43,378.7,535.53ZM586.77,666.62a20.21,20.21,0,0,0,19.79-20.2,19.8,19.8,0,0,0-20.17-19.69c-11,.1-20.1,9.31-19.93,20.07A20.6,20.6,0,0,0,586.77,666.62Zm63.72,0a20.12,20.12,0,0,0,19.83-20.11,19.68,19.68,0,0,0-20-19.78c-10.89.07-20.1,9.27-20,20S639.81,666.67,650.49,666.62Z"/><path class="cls-2" d="M538.4,375.36v6.51q0,79.22,0,158.43a36.26,36.26,0,0,1-.7,8,23.15,23.15,0,0,1-22.55,18.32c-8.08.16-16.15.09-24.23.1-17.35,0-34.71,0-52.06,0a42.68,42.68,0,0,1-8.9-.73c-10.76-2.35-17.92-10.86-18.64-21.85-.12-1.79-.08-3.59-.08-5.38v-163c-2.33-.14-4.35-.38-6.37-.38-26-.05-52.06,0-78.08-.15a33.36,33.36,0,0,1-8.86-1.1c-12.21-3.45-17.87-18.19-11.17-29a37.59,37.59,0,0,1,5.37-6.58q73.26-73.37,146.57-146.66c4.84-4.85,10.11-8.27,17.38-7.73a18.16,18.16,0,0,1,10.36,3.71,65.42,65.42,0,0,1,5.34,4.79q72,72,144,144.07a72.82,72.82,0,0,1,6,6.65c9.56,12.19,1.15,29.95-12.67,31.24-3.42.32-6.85.7-10.28.71q-37.25.09-74.49,0Z"/><path class="cls-2" d="M298.77,448.81v6c0,16.15-.18,32.31.08,48.47.12,7.28-3.8,10.34-10,10.26-7.77-.11-15.55.06-23.33-.05-6.57-.09-9.48-3.11-9.5-9.79-.05-16.31,0-32.62,0-48.92v-5.72c-2-.11-3.59-.27-5.18-.27-7,0-14.06,0-21.09,0-1.05,0-2.1,0-3.14-.05-2.87-.27-5.23-1.44-6.31-4.28s-.24-5.29,1.78-7.41c.72-.76,1.46-1.5,2.2-2.24l46-46c.64-.63,1.25-1.29,1.92-1.89,3.67-3.36,6.87-3.33,10.63.11.55.5,1.07,1,1.6,1.57l46.33,46.34a25.42,25.42,0,0,1,3,3.33c2.83,4.09,1,9-3.84,10.14a19.37,19.37,0,0,1-4.44.39c-7.18,0-14.36,0-21.54,0Z"/><path class="cls-2" d="M693.65,447.91v5.55q0,23.55,0,47.11a30,30,0,0,1-.11,4,7.46,7.46,0,0,1-6.37,6.58,19.25,19.25,0,0,1-3.12.28c-7.63,0-15.26.09-22.88,0-7-.1-9.47-2.69-9.48-9.54q0-24.24,0-48.46v-5.27c-2-.16-3.55-.39-5.13-.4-7.18,0-14.35,0-21.53,0-3.55,0-7-.17-8.63-4.13s.76-6.48,3.28-9q23.19-23.14,46.33-46.32c.52-.53,1-1.07,1.6-1.57,3.42-3,6.6-3.06,9.94-.06.67.59,1.28,1.25,1.91,1.89q22.84,22.83,45.68,45.69a21.77,21.77,0,0,1,3.25,3.69,6.09,6.09,0,0,1-4,9.39,46.66,46.66,0,0,1-8,.56c-5.83.08-11.67,0-17.5,0Z"/></svg>