<svg id="Layer_1" data-name="Layer 1" xmlns="http://www.w3.org/2000/svg" viewBox="0 0 950 950"><defs><style>.cls-1{fill:#3174ba;stroke:#3174ba;stroke-miterlimit:10;}.cls-2{fill:#fff;}</style></defs><circle class="cls-1" cx="478" cy="476" r="457"/><path class="cls-2" d="M505.43,578.11c-9.72,0-18.76-.34-27.75.13-5.93.3-9.79-1.88-13.14-6.55-5.16-7.2-11-13.89-16.16-21.08-3.68-5.14-7.42-6.08-13.31-3.44-60.68,27.15-130.77,15.72-179-30C222.7,485.52,207.05,445.75,207,400c-.09-74.95,49.34-138,121.85-156.18,91.62-22.92,185,41.11,195.87,134.43.77,6.53.79,13.15,1.76,19.64.31,2.11,2.13,4.95,4,5.73,9.46,4,13.25,8.92,13.3,19,0,9.54-.19,19.09.16,28.62.09,2.33,1.5,5.92,3.23,6.62,4,1.61,5.75-1.51,7.11-5.11,9.68-25.42,19.81-50.68,29.17-76.22,2.63-7.18,6.23-9.73,13.83-9.41,14.75.6,29.53.36,44.3.08,5.29-.11,8.14,1.52,10.13,6.69q58.42,152,117.15,304c3.37,8.72,1.68,11.11-7.67,11.14-14.54,0-29.09-.26-43.62.13-6.06.17-8.89-2.21-10.87-7.71-6.14-17-13-33.87-19-50.95-2-5.59-4.84-7.79-10.86-7.75q-57.93.33-115.87,0c-5.93,0-8.91,2-11,7.58-6.66,17.59-14,34.91-20.79,52.47-1.75,4.54-4.21,6.36-9,6.3-15.44-.19-30.89,0-46.34-.1-7.9-.05-9.55-2.66-6.59-10.34q17.82-46.33,35.74-92.64C503.73,583.68,504.39,581.31,505.43,578.11ZM366.6,506.3c9.15-1.47,18.38-2.52,27.41-4.53,9.51-2.11,10.93-6.87,5-14.53-12.24-15.79-24.65-31.46-36.66-47.43-1.93-2.56-3.78-7.16-2.71-9.44s5.8-3.89,9-4c15.44-.4,30.91-.52,46.34.07,3.68.14,8.06,2.63,10.67,5.4,5.43,5.76,9.87,12.44,14.72,18.73,6.78,8.78,11.52,8.33,16.24-1.65A110.5,110.5,0,0,0,465,376.64c-15.6-72.67-98.62-106-157.4-62.48-34.17,25.33-45.51,61-40.81,102.29C272.63,467.79,314.9,505.26,366.6,506.3Zm126.58-63.2c0,6.59-.3,13.19.08,19.76.35,6-2,8-7.92,7.9-12.94-.3-25.9,0-38.85-.14-5.59-.06-8.48,1.85-8.24,7.93.31,7.49.31,15,0,22.49-.24,5.87,2,8.17,7.95,8,13.18-.25,26.37.11,39.54-.15,5.71-.12,7.61,2.2,7.51,7.69-.23,12.72-.1,25.44-.06,38.17,0,8.23.6,8.78,9.05,8.81,6.82,0,13.66-.32,20.45.09s8.85-2.74,8.78-8.91c-.16-12.95.12-25.9-.11-38.85-.1-5.34,2-7.18,7.23-7.08,13.41.24,26.82,0,40.22.12,5,.06,7.13-2.16,7.14-6.9,0-7.5-.24-15,.09-22.49.29-6.43-2.28-9.1-8.74-9-12.72.23-25.46-.23-38.17.19-6.15.2-7.82-2-7.65-7.88.37-12.72,0-25.45.14-38.17,0-6.14-2.22-9.29-8.87-8.95a198.57,198.57,0,0,1-21.13,0c-6.71-.36-8.9,2.57-8.52,8.92C493.46,430.81,493.18,437,493.18,443.1Zm125,120.07c10.45,0,20.91.15,31.36,0,8.43-.15,10.61-3.5,7.62-11.26-10.59-27.51-21.13-55-32-82.44-1.09-2.77-4.12-4.77-6.25-7.12-2.36,2.36-5.77,4.29-6.9,7.14-10.89,27.39-21.42,54.92-32,82.43-3,7.83-.9,11.11,7.47,11.26C597.75,563.32,608,563.17,618.2,563.17Z"/></svg>